<?xml version="1.0" encoding="utf-8"?>
<!-- Generator: Adobe Illustrator 16.0.0, SVG Export Plug-In . SVG Version: 6.00 Build 0)  -->
<!DOCTYPE svg PUBLIC "-//W3C//DTD SVG 1.1//EN" "http://www.w3.org/Graphics/SVG/1.1/DTD/svg11.dtd">
<svg version="1.1" id="Layer_1" xmlns="http://www.w3.org/2000/svg" xmlns:xlink="http://www.w3.org/1999/xlink" x="0px" y="0px"
	 width="426.782px" height="245.768px" viewBox="94.807 240.641 426.782 245.768"
	 enable-background="new 94.807 240.641 426.782 245.768" xml:space="preserve">
<g>
	<circle fill="#3C70B4" cx="126.398" cy="272.231" r="31.197"/>
	<path fill="#3C70B4" d="M126.398,303.821c-17.418,0-31.59-14.171-31.59-31.59s14.171-31.59,31.59-31.59s31.59,14.171,31.59,31.59
		S143.816,303.821,126.398,303.821z M126.398,241.426c-16.986,0-30.805,13.819-30.805,30.805s13.819,30.805,30.805,30.805
		s30.805-13.819,30.805-30.805S143.384,241.426,126.398,241.426z"/>
</g>
<rect x="186.333" y="246.59" fill="#3C70B4" width="335.256" height="46.795"/>
<rect x="186.333" y="339.936" fill="#3C70B4" width="335.256" height="46.795"/>
<rect x="186.333" y="431.422" fill="#3C70B4" width="335.256" height="46.795"/>
<g>
	<circle fill="#3C70B4" cx="126.398" cy="363.333" r="31.197"/>
	<path fill="#3C70B4" d="M126.398,394.923c-17.419,0-31.59-14.171-31.59-31.59s14.171-31.59,31.59-31.59
		c17.418,0,31.59,14.171,31.59,31.59S143.816,394.923,126.398,394.923z M126.398,332.529c-16.986,0-30.805,13.819-30.805,30.805
		s13.818,30.805,30.805,30.805c16.985,0,30.805-13.819,30.805-30.805S143.383,332.529,126.398,332.529z"/>
</g>
<g>
	<circle fill="#3C70B4" cx="126.397" cy="454.819" r="31.197"/>
	<path fill="#3C70B4" d="M126.397,486.409c-17.419,0-31.59-14.171-31.59-31.59s14.171-31.591,31.59-31.591
		c17.418,0,31.59,14.172,31.59,31.591S143.815,486.409,126.397,486.409z M126.397,424.015c-16.986,0-30.805,13.819-30.805,30.806
		c0,16.985,13.818,30.805,30.805,30.805c16.985,0,30.805-13.819,30.805-30.805C157.202,437.834,143.383,424.015,126.397,424.015z"/>
</g>
</svg>
