<svg xmlns="http://www.w3.org/2000/svg" width="426.782" height="245.768" viewBox="94.807 240.641 426.782 245.768"><g fill="#3C70B4"><circle cx="126.398" cy="272.231" r="31.197"/><path d="M126.398 303.821c-17.418 0-31.59-14.171-31.59-31.59s14.171-31.59 31.59-31.59 31.59 14.171 31.59 31.59-14.172 31.59-31.59 31.59zm0-62.395c-16.986 0-30.805 13.819-30.805 30.805s13.819 30.805 30.805 30.805 30.805-13.819 30.805-30.805-13.819-30.805-30.805-30.805z"/></g><path fill="#3C70B4" d="M186.333 246.59h335.256v46.795H186.333zM186.333 339.936h335.256v46.795H186.333zM186.333 431.422h335.256v46.795H186.333z"/><g fill="#3C70B4"><circle cx="126.398" cy="363.333" r="31.197"/><path d="M126.398 394.923c-17.419 0-31.59-14.171-31.59-31.59s14.171-31.59 31.59-31.59c17.418 0 31.59 14.171 31.59 31.59s-14.172 31.59-31.59 31.59zm0-62.394c-16.986 0-30.805 13.819-30.805 30.805s13.818 30.805 30.805 30.805c16.985 0 30.805-13.819 30.805-30.805s-13.82-30.805-30.805-30.805z"/></g><g fill="#3C70B4"><circle cx="126.397" cy="454.819" r="31.197"/><path d="M126.397 486.409c-17.419 0-31.59-14.171-31.59-31.59s14.171-31.591 31.59-31.591c17.418 0 31.59 14.172 31.59 31.591s-14.172 31.59-31.59 31.59zm0-62.394c-16.986 0-30.805 13.819-30.805 30.806 0 16.985 13.818 30.805 30.805 30.805 16.985 0 30.805-13.819 30.805-30.805 0-16.987-13.819-30.806-30.805-30.806z"/></g></svg>