<svg id="Layer_1" xmlns="http://www.w3.org/2000/svg" viewBox="0 0 28 38" width="28" height="38"><style>.st0{fill:#938531}</style><ellipse fill="#fff" cx="14.031" cy="16.875" rx="11.406" ry="16.875"/><path class="st0" d="M14 19.7c-3.9 0-7.1-3.2-7.1-7.1 0-3.9 3.2-7.1 7.1-7.1s7.1 3.2 7.1 7.1c0 4-3.2 7.1-7.1 7.1zm0-11c-2.2 0-4 1.8-4 4s1.8 4 4 4 4-1.8 4-4-1.8-4-4-4z"/><path class="st0" d="M14 38l-1.1-1C12.5 36.5 1.2 25.8.2 15.4v-.1c0-.5-.1-1-.1-1.4C.1 6.3 6.3 0 14 0s13.9 6.2 13.9 13.9v.9c-.1 1.1-.3 2.2-.6 3.2-1.2 4.5-4.2 11.4-12.3 19l-1 1zm0-34.9C8 3.1 3.2 8 3.2 13.9c0 .3 0 .6.1 1.1v.1c.7 7.5 8 15.8 10.8 18.6 6.7-6.7 9.3-12.6 10.3-16.5v-.1c.2-.8.4-1.6.5-2.5V14C24.8 8 20 3.1 14 3.1z"/></svg>