<?xml version="1.0" encoding="utf-8"?>
<!-- Generator: Adobe Illustrator 21.1.0, SVG Export Plug-In . SVG Version: 6.00 Build 0)  -->
<!DOCTYPE svg PUBLIC "-//W3C//DTD SVG 1.1//EN" "http://www.w3.org/Graphics/SVG/1.1/DTD/svg11.dtd">
<svg version="1.1" id="Layer_1" xmlns="http://www.w3.org/2000/svg" xmlns:xlink="http://www.w3.org/1999/xlink" x="0px" y="0px"
	 viewBox="0 0 28 38" style="enable-background:new 0 0 28 38;" xml:space="preserve" width="28" height="38">
<style type="text/css">
	.st0{fill:#938531;}
</style>
<ellipse fill="#ffffff" cx="14.031" cy="16.875" rx="11.406" ry="16.875"/>
<path class="st0" d="M14,19.7c-3.9,0-7.1-3.2-7.1-7.1c0-3.9,3.2-7.1,7.1-7.1s7.1,3.2,7.1,7.1C21.1,16.6,17.9,19.7,14,19.7z M14,8.7
	c-2.2,0-4,1.8-4,4c0,2.2,1.8,4,4,4s4-1.8,4-4C18,10.5,16.2,8.7,14,8.7z"/>
<path class="st0" d="M14,38l-1.1-1C12.5,36.5,1.2,25.8,0.2,15.4l0-0.1c0-0.5-0.1-1-0.1-1.4C0.1,6.3,6.3,0,14,0s13.9,6.2,13.9,13.9
	c0,0,0,0.4,0,0.9c-0.1,1.1-0.3,2.2-0.6,3.2C26.1,22.5,23.1,29.4,15,37L14,38z M14,3.1C8,3.1,3.2,8,3.2,13.9c0,0.3,0,0.6,0.1,1.1
	l0,0.1c0.7,7.5,8,15.8,10.8,18.6c6.7-6.7,9.3-12.6,10.3-16.5l0-0.1c0.2-0.8,0.4-1.6,0.5-2.5l0,0c0-0.4,0-0.6,0-0.6
	C24.8,8,20,3.1,14,3.1z"/>
</svg>
