<?xml version="1.0" encoding="utf-8"?>
<!-- Generator: Adobe Illustrator 16.0.0, SVG Export Plug-In . SVG Version: 6.00 Build 0)  -->
<!DOCTYPE svg PUBLIC "-//W3C//DTD SVG 1.1//EN" "http://www.w3.org/Graphics/SVG/1.1/DTD/svg11.dtd">
<svg version="1.1" id="Layer_1" xmlns="http://www.w3.org/2000/svg" xmlns:xlink="http://www.w3.org/1999/xlink" x="0px" y="0px"
	 width="28px" height="38px" viewBox="0 0 28 38" enable-background="new 0 0 28 38" xml:space="preserve">
<ellipse fill="#FFFFFF" cx="14.031" cy="16.875" rx="11.407" ry="16.875"/>
<path fill="#938531" d="M14,0C6.3,0,0.1,6.3,0.1,13.9c0,0.4,0.1,0.9,0.1,1.4v0.1c1,10.4,12.3,21.1,12.7,21.6l1.1,1l1-1
	c8.1-7.6,11.1-14.5,12.3-19c0.3-1,0.5-2.1,0.601-3.2c0-0.5,0-0.9,0-0.9C27.9,6.2,21.7,0,14,0z M14,16.7c-2.2,0-4-1.8-4-4
	c0-2.2,1.8-4,4-4s4,1.8,4,4C18,14.9,16.2,16.7,14,16.7z"/>
</svg>
